<?xml version="1.0" standalone="no"?>
<!DOCTYPE svg PUBLIC "-//W3C//DTD SVG 20010904//EN"
 "http://www.w3.org/TR/2001/REC-SVG-20010904/DTD/svg10.dtd">
<svg version="1.0" xmlns="http://www.w3.org/2000/svg"
 width="900.000000pt" height="609.000000pt" viewBox="0 0 900.000000 609.000000"
 preserveAspectRatio="xMidYMid meet">

<g transform="translate(0.000000,609.000000) scale(0.100000,-0.100000)"
fill="#000000" stroke="none">
<path d="M3119 6064 c-5 -15 -8 -40 -5 -56 2 -15 1 -28 -4 -28 -4 0 -10 -13
-12 -30 -3 -16 -1 -30 4 -30 4 0 8 -7 8 -15 0 -8 -6 -14 -12 -12 -9 1 -12 -12
-10 -46 1 -27 -1 -46 -5 -44 -5 3 -8 -13 -8 -36 1 -23 -2 -44 -6 -47 -7 -5
-21 -59 -22 -87 0 -7 -4 -10 -8 -8 -4 3 -15 -8 -25 -23 -28 -42 -44 -73 -34
-67 6 4 10 1 10 -5 0 -6 5 -8 10 -5 6 4 8 15 5 25 -3 10 -2 21 3 24 19 11 11
-62 -8 -79 -14 -13 -20 -14 -20 -5 0 7 -3 11 -6 7 -3 -3 2 -21 11 -40 12 -26
14 -40 6 -55 -6 -10 -9 -43 -7 -73 2 -30 -1 -62 -6 -73 -7 -13 -7 -16 1 -12
15 9 3 -23 -18 -48 -14 -18 -15 -19 0 -14 9 4 16 1 16 -8 0 -8 -5 -14 -11 -14
-6 0 -4 -5 4 -10 13 -8 12 -11 -5 -24 -29 -22 -38 -19 -24 7 11 20 11 21 -5 8
-14 -12 -16 -12 -10 3 3 9 10 16 15 16 4 0 6 7 3 15 -4 8 -11 12 -17 8 -7 -4
-8 0 -3 13 8 21 9 24 7 42 0 7 -7 10 -13 7 -7 -4 -6 -1 3 7 18 15 21 48 5 45
-6 -1 -14 -6 -18 -12 -5 -6 -8 -5 -8 3 0 8 9 16 19 19 17 4 18 9 9 28 -18 40
-41 20 -35 -32 2 -23 1 -43 -3 -43 -12 0 -47 -431 -36 -449 10 -16 38 0 33 19
-2 9 1 17 9 17 9 0 12 -9 10 -24 -3 -14 -1 -21 5 -17 6 3 8 8 5 11 -3 3 -1 15
5 26 8 15 8 18 -1 12 -9 -5 -10 -1 -5 14 5 16 3 20 -9 15 -9 -3 -13 -11 -9
-17 4 -6 1 -7 -7 -2 -10 6 -4 16 21 37 19 16 29 27 23 24 -7 -3 -14 3 -17 14
-3 12 -1 18 5 14 6 -4 8 2 3 16 -5 15 -3 20 3 16 6 -4 10 2 9 14 -1 11 -4 20
-8 20 -4 0 -4 12 0 28 4 15 6 34 4 42 -4 12 -3 13 5 1 6 -8 17 -11 27 -7 9 3
23 0 31 -8 17 -18 18 -27 2 -23 -14 2 -22 -27 -14 -50 5 -13 9 -13 23 -2 14
12 14 10 -1 -13 -20 -31 -32 -37 -22 -12 5 13 4 14 -7 6 -8 -7 -16 -11 -18 -9
-2 1 2 -3 9 -10 8 -6 11 -16 7 -22 -3 -6 -2 -11 4 -11 5 0 8 -17 6 -37 -1 -21
2 -44 7 -50 7 -9 7 -17 -1 -26 -6 -8 -7 -18 -3 -22 4 -5 2 -5 -5 -1 -17 9 -26
-11 -26 -61 0 -28 -3 -40 -8 -31 -5 7 -9 9 -9 3 0 -5 -7 -1 -15 9 -8 11 -15
15 -15 9 0 -7 5 -15 10 -18 6 -3 10 -14 10 -23 -1 -15 -2 -15 -11 1 -6 9 -14
15 -20 12 -5 -4 -9 0 -9 7 0 9 -3 9 -10 -2 -8 -12 -10 -12 -10 -1 0 28 -14 -2
-19 -40 -1 -4 -36 -30 -80 -58 l-78 -52 -17 -127 c-10 -70 -23 -177 -31 -239
-7 -62 -23 -140 -34 -175 l-21 -63 -113 -67 c-61 -36 -164 -94 -227 -128 -63
-34 -119 -65 -125 -70 -5 -4 -32 -14 -60 -23 -47 -15 -49 -15 -25 1 40 27 217
196 219 208 0 6 -13 14 -30 18 -17 3 -28 10 -25 15 3 5 -3 11 -14 14 -16 4
-41 -16 -112 -89 -60 -62 -103 -97 -127 -105 -20 -6 -47 -17 -61 -24 -14 -7
-54 -23 -90 -35 -67 -23 -448 -184 -457 -194 -3 -3 1 -27 8 -55 12 -47 15 -50
38 -45 24 5 25 4 6 -8 -11 -7 -29 -13 -40 -14 -68 -4 -126 -33 -237 -117 -65
-49 -118 -91 -118 -94 0 -3 8 1 18 8 11 9 9 5 -4 -11 -49 -57 -96 -104 -89
-90 4 8 -9 -2 -29 -22 -39 -41 -50 -28 -14 17 l21 27 -23 -13 c-15 -9 -54 -78
-112 -199 -49 -102 -133 -270 -185 -374 l-96 -190 -8 -290 c-5 -160 -15 -356
-23 -436 -17 -163 -17 -183 3 -191 7 -3 15 -21 16 -39 2 -23 13 -43 32 -60 34
-31 96 -177 89 -211 -3 -13 -11 -52 -19 -87 l-13 -63 -45 48 c-24 26 -56 64
-71 83 l-27 35 -1 -77 c0 -42 5 -89 10 -104 19 -48 4 -36 -28 23 -17 32 -32
51 -32 43 0 -8 9 -30 21 -49 26 -43 46 -95 27 -69 -7 9 -21 30 -30 47 -19 35
-38 41 -38 12 0 -11 -5 -23 -10 -26 -25 -15 9 -122 49 -152 9 -7 12 -13 8 -13
-5 0 5 -25 22 -55 37 -65 42 -98 6 -40 -16 27 -24 34 -25 22 0 -18 23 -67 46
-97 13 -17 94 -167 94 -175 0 -8 -64 40 -99 74 -26 25 -36 30 -42 19 -5 -7 -9
-8 -9 -3 0 6 -5 3 -10 -5 -6 -9 -10 -10 -10 -3 0 7 -10 10 -26 7 -14 -3 -23
-1 -20 5 10 16 -33 0 -46 -18 -12 -15 -11 -15 7 -1 19 14 19 14 6 -3 -9 -11
-18 -14 -24 -8 -12 12 -37 3 -37 -15 0 -13 -12 -18 -32 -15 -4 0 -10 -8 -13
-19 -5 -16 -9 -18 -26 -7 -10 6 -19 19 -19 27 0 9 -5 21 -10 26 -7 7 22 76 89
211 77 155 103 219 116 282 9 45 14 87 12 94 -3 7 -6 5 -6 -5 -3 -68 -108
-319 -260 -623 l-75 -150 0 -112 -1 -113 4454 0 4454 0 -22 24 c-38 40 -125
78 -195 83 l-64 6 5 75 c7 91 -1 90 -54 -8 -26 -48 -45 -71 -62 -75 -13 -3
-26 -4 -28 -1 -3 3 -9 39 -14 82 l-8 77 40 46 c51 57 81 115 109 211 34 115
75 183 153 256 48 46 62 64 46 59 -34 -10 -111 -57 -121 -75 -67 -119 -88
-152 -88 -138 0 9 5 20 11 24 8 5 8 9 -1 14 -9 5 -9 26 0 87 10 69 10 89 -5
144 -10 35 -21 93 -26 128 -10 75 -15 93 -36 143 -13 30 -19 36 -30 27 -10 -9
-13 -8 -13 4 0 9 6 20 13 24 6 4 23 40 35 78 42 125 80 191 193 332 60 76 121
160 134 188 14 27 41 113 61 190 32 125 35 151 32 240 -3 70 -9 110 -22 133
-25 47 -82 109 -135 144 -25 17 -61 45 -78 61 -31 29 -33 34 -33 104 0 137
-46 494 -101 788 -32 170 -45 208 -60 184 -10 -15 -8 -45 17 -389 13 -177 14
-267 5 -515 -10 -319 -16 -357 -62 -406 -14 -15 -26 -30 -25 -31 0 -2 -4 2
-10 9 -8 9 -14 5 -27 -16 -9 -16 -13 -32 -9 -36 4 -5 2 -5 -5 -2 -6 4 -13 2
-15 -5 -6 -17 -77 -14 -113 5 -38 19 -125 95 -125 109 0 6 35 45 78 87 110
109 175 209 213 333 40 129 38 202 -6 248 -38 40 -86 52 -159 40 -32 -5 -68
-12 -79 -16 -20 -6 -20 -4 5 22 60 65 130 174 160 249 79 201 12 407 -172 526
-28 18 -50 37 -50 43 0 6 4 5 9 -2 7 -11 9 -10 14 3 5 11 3 14 -5 9 -7 -5 -9
-2 -6 8 4 8 0 15 -8 15 -7 0 -10 -5 -7 -11 3 -6 -6 0 -20 13 -15 13 -24 27
-22 32 3 4 1 10 -5 14 -5 3 -10 11 -10 18 0 6 6 2 14 -8 7 -10 21 -20 30 -21
14 -2 15 0 5 12 -6 7 -15 12 -19 9 -4 -3 -11 3 -15 12 -5 16 -8 15 -25 -7 -11
-14 -20 -21 -20 -16 0 5 -6 4 -13 -2 -10 -9 -26 -3 -64 23 l-50 34 -7 78 c-3
43 -17 128 -31 188 -29 127 -32 120 64 156 132 50 212 48 331 -7 64 -29 143
-102 172 -158 30 -58 28 -165 -6 -285 -14 -52 -24 -96 -22 -98 2 -2 15 15 31
38 44 68 67 145 72 249 4 93 3 97 -30 160 -39 75 -121 149 -190 170 -60 19
-65 28 -17 28 23 1 48 7 57 14 13 11 12 13 -13 20 -77 20 -192 20 -343 -2
-149 -21 -155 -21 -172 -3 -10 10 -47 76 -83 148 -54 106 -66 124 -66 98 0
-18 16 -74 35 -125 19 -51 36 -108 37 -126 3 -32 1 -34 -67 -63 -38 -16 -98
-44 -132 -61 -72 -37 -56 -45 -143 76 -43 59 -50 76 -50 116 0 58 20 205 65
465 49 288 60 332 110 419 23 42 40 78 35 81 -21 13 -155 -136 -200 -224 -27
-54 -110 -303 -155 -466 l-33 -120 -41 -1 c-53 0 -101 -45 -160 -149 -71 -123
-101 -226 -140 -482 -11 -69 -22 -127 -24 -129 -2 -2 -30 2 -64 8 l-61 11 -22
53 c-23 56 -104 147 -158 180 -22 12 -32 28 -37 53 -4 20 -17 63 -30 95 l-24
59 42 38 c23 21 59 48 80 61 106 64 135 87 165 132 36 54 39 80 17 132 -10 25
-26 40 -57 53 -75 33 -95 32 -30 0 61 -31 62 -32 62 -73 0 -46 -11 -65 -82
-146 -49 -55 -187 -180 -200 -180 -3 0 -17 19 -31 43 -38 65 -83 117 -145 170
-57 48 -228 167 -241 167 -4 0 -8 12 -9 27 -4 51 -58 60 -85 14 -19 -33 -35
-37 -224 -47 -68 -4 -120 -10 -117 -15 3 -5 1 -9 -3 -9 -23 0 -120 219 -167
378 -38 130 -186 443 -194 410 -2 -9 20 -61 48 -115 52 -98 145 -331 136 -340
-2 -3 -12 10 -22 29 -17 34 -74 119 -85 128 -7 5 -42 85 -38 85 10 0 -20 33
-33 38 -10 3 -18 14 -18 22 0 9 -4 14 -8 11 -4 -2 -8 3 -8 12 0 9 -4 28 -8 41
-5 15 -5 21 2 17 12 -7 10 20 -3 31 -4 4 -5 3 -2 -3 4 -7 0 -17 -8 -24 -7 -6
-12 -17 -9 -25 3 -7 0 -16 -6 -20 -8 -5 -8 -11 1 -21 9 -11 8 -19 -7 -36 -11
-12 -13 -18 -6 -14 7 4 15 1 18 -8 3 -9 10 -14 14 -11 4 3 8 -1 7 -8 -1 -32 4
-47 16 -45 6 2 11 -3 9 -9 -1 -7 2 -13 7 -13 14 0 20 -37 7 -51 -8 -9 -8 -10
0 -6 7 4 14 -3 18 -16 8 -32 7 -47 -4 -47 -5 0 -10 7 -10 15 0 8 -4 15 -10 15
-5 0 -10 9 -10 20 0 11 -4 20 -9 20 -5 0 -12 11 -15 25 -6 22 -9 24 -27 14
-17 -9 -20 -8 -14 3 3 7 -1 4 -11 -7 -14 -17 -16 -17 -11 -2 4 11 1 20 -10 24
-9 4 -19 1 -21 -5 -2 -7 -7 -10 -12 -7 -4 3 -6 -3 -3 -13 3 -12 -1 -19 -10
-19 -11 0 -13 7 -8 26 9 35 8 52 -4 49 -5 -2 -10 -10 -9 -19 0 -8 -8 -16 -18
-16 -10 -1 -17 1 -15 5 1 4 -2 8 -6 9 -12 3 -47 49 -47 62 0 6 7 11 15 11 8 0
15 7 15 15 0 8 5 15 10 15 6 0 5 8 -2 19 -7 11 -15 18 -19 15 -4 -2 -2 7 4 20
7 13 15 22 19 19 5 -2 6 -9 3 -14 -3 -5 1 -6 9 -3 11 4 16 0 16 -10 0 -9 5
-16 10 -16 14 0 13 7 -5 34 -14 21 -14 25 0 36 12 10 16 9 21 -4 5 -14 8 -14
21 -1 8 8 12 19 9 23 -6 11 24 9 44 -2 12 -7 11 -5 -1 8 -9 10 -23 18 -31 20
-8 1 -27 10 -42 20 -32 21 -42 16 -27 -12 14 -26 14 -42 1 -22 -8 12 -10 12
-10 1 0 -10 -3 -11 -14 -2 -11 10 -15 8 -19 -6 -2 -10 -4 2 -4 27 0 35 1 40 8
23 5 -13 13 -23 19 -23 7 0 7 7 -1 21 -9 17 -8 20 1 14 10 -6 11 -1 6 21 -4
16 -9 31 -11 32 -7 8 -25 -10 -25 -24 0 -8 -4 -13 -9 -9 -5 3 -11 -3 -13 -12
-3 -15 -5 -14 -10 5 -3 12 -3 20 2 17 11 -7 33 22 25 35 -3 6 -10 8 -15 5 -5
-3 -4 8 2 25 9 29 11 29 24 13 7 -10 14 -22 14 -27 0 -6 -7 -1 -15 10 -13 18
-14 18 -8 -4 4 -19 11 -23 30 -19 28 5 42 -11 22 -25 -11 -8 -10 -9 4 -4 19 6
24 -10 5 -17 -10 -4 -10 -7 0 -18 10 -11 12 -11 12 1 1 11 3 10 11 -3 8 -14
14 -16 25 -6 10 8 14 8 14 0 0 -6 -4 -11 -10 -11 -18 0 -10 -16 9 -17 22 -2
18 29 -7 49 -12 10 -14 10 -8 1 4 -7 5 -13 2 -13 -7 0 -43 62 -51 87 -5 19 -3
22 11 16 15 -6 15 -4 -1 20 -19 30 -30 36 -21 12 7 -19 -3 -47 -15 -39 -5 3
-9 10 -9 15 0 6 4 8 9 5 8 -6 7 43 -3 97 -3 15 1 24 9 24 8 0 12 -8 10 -20 -4
-16 -2 -17 11 -6 10 8 12 15 4 23 -5 5 -10 19 -10 30 0 20 0 20 16 0 14 -18
15 -18 4 4 -6 12 -16 20 -22 16 -7 -4 -8 1 -3 16 6 20 5 21 -8 9 -11 -10 -12
-17 -4 -27 8 -10 7 -16 -4 -23 -8 -5 -17 -9 -21 -9 -5 0 -8 -7 -8 -15 0 -8 -5
-15 -11 -15 -6 0 -8 -7 -4 -17 5 -14 3 -15 -5 -7 -9 9 -9 17 0 33 6 12 8 25 5
30 -3 5 2 16 10 24 8 9 12 23 9 31 -5 14 5 21 27 18 4 -1 5 8 2 19 -3 12 -11
18 -19 15 -8 -3 -14 -1 -14 4 0 6 -26 9 -57 8 -32 0 -52 -3 -45 -5 14 -5 17
-33 3 -33 -13 0 -32 26 -25 33 4 4 -383 7 -860 7 l-866 0 -11 -26z m1669 -19
c-3 -3 -9 2 -12 12 -6 14 -5 15 5 6 7 -7 10 -15 7 -18z m67 4 c-4 -5 -12 -9
-18 -8 -9 0 -8 2 1 6 6 2 9 10 6 15 -4 7 -2 8 5 4 6 -4 9 -12 6 -17z m100 -27
c2 -23 -2 -29 -14 -27 -9 1 -22 -2 -29 -8 -10 -8 -10 -14 1 -31 7 -12 18 -34
25 -51 11 -28 11 -28 -3 -11 -15 20 -15 20 -15 0 -1 -18 -1 -18 -11 -1 -8 13
-7 22 2 33 10 12 10 15 -2 12 -8 -2 -13 4 -13 15 2 14 -1 15 -13 6 -11 -10
-14 -10 -11 2 2 8 -3 13 -10 11 -8 -1 -11 2 -7 8 4 6 16 8 27 4 18 -5 19 -4 7
18 -11 21 -11 22 4 9 13 -10 17 -10 17 -1 0 10 3 10 14 1 10 -8 16 -9 21 -1 3
5 0 10 -7 11 -9 0 -10 2 -1 5 7 3 9 13 6 22 -3 9 -3 14 2 10 4 -4 8 -20 10
-36z m-115 -9 c12 10 12 9 1 -5 -15 -20 -38 -14 -38 9 0 14 1 14 12 0 9 -13
15 -14 25 -4z m104 -49 c5 -14 4 -15 -9 -4 -17 14 -19 20 -6 20 5 0 12 -7 15
-16z m59 -105 c-4 -14 -9 -17 -18 -9 -6 5 -16 6 -20 2 -5 -4 -5 -1 -1 6 4 6
14 12 21 12 9 0 12 6 9 18 -5 13 -4 14 4 3 5 -7 7 -22 5 -32z m-66 -79 c-2
-17 -7 -32 -10 -35 -4 -3 -5 -2 -2 1 2 4 0 16 -6 27 -8 14 -8 18 0 13 6 -4 11
0 11 8 0 9 2 16 5 16 3 0 3 -14 2 -30z m-33 -18 c3 -5 -1 -9 -9 -9 -8 0 -12 4
-9 9 3 4 7 8 9 8 2 0 6 -4 9 -8z m14 -87 c-3 -3 -9 2 -12 12 -6 14 -5 15 5 6
7 -7 10 -15 7 -18z m146 -21 c3 -8 2 -12 -4 -9 -6 3 -10 10 -10 16 0 14 7 11
14 -7z m-124 -34 c8 -5 11 -12 7 -16 -4 -4 -15 0 -24 9 -18 18 -8 23 17 7z
m-1902 -37 c0 -21 -2 -23 -10 -9 -5 9 -6 21 -3 26 10 16 13 12 13 -17z m77
-108 c-5 16 -4 17 6 8 10 -10 9 -15 0 -27 -7 -8 -9 -21 -5 -27 4 -7 3 -9 -3
-6 -15 9 -23 -17 -11 -34 8 -11 9 -10 4 4 -9 28 10 20 23 -10 7 -16 10 -25 6
-21 -4 4 -15 -3 -25 -14 l-17 -22 -13 23 c-8 15 -8 21 -1 17 12 -8 15 6 5 17
-4 3 -8 24 -9 46 -3 31 0 39 11 34 10 -4 12 0 8 13 -6 17 -5 17 10 -1 l18 -20
-7 20z m2136 -2 c13 -17 13 -17 -6 -3 -11 8 -22 16 -24 17 -2 2 0 3 6 3 6 0
17 -8 24 -17z m-211 -127 c0 -6 -7 -1 -15 10 -8 10 -15 23 -15 28 0 6 7 1 15
-10 8 -10 15 -23 15 -28z m137 -18 c-3 -8 -6 -5 -6 6 -1 11 2 17 5 13 3 -3 4
-12 1 -19z m-2046 -7 c5 9 7 2 4 -20 -2 -19 -8 -38 -14 -44 -7 -7 -8 -2 -4 14
l6 24 -21 -25 c-15 -19 -23 -22 -32 -14 -9 9 -9 14 1 19 8 5 10 4 5 -3 -4 -7
-3 -12 2 -12 5 0 14 12 21 27 10 22 10 25 -2 15 -15 -13 -27 -6 -27 14 0 8 6
11 14 8 8 -3 18 1 22 8 7 10 9 8 12 -6 3 -15 6 -16 13 -5z m2217 -53 c16 -24
46 -83 66 -133 21 -49 49 -114 62 -144 13 -30 23 -56 21 -58 -8 -8 -63 20
-109 55 -46 35 -48 38 -48 88 0 67 -10 115 -22 108 -6 -4 -5 4 2 16 7 14 8 25
2 29 -13 9 -25 81 -13 81 6 0 23 -19 39 -42z m-173 -28 c-3 -5 -1 -10 6 -10 7
0 10 -3 6 -6 -9 -9 -28 6 -22 17 4 5 8 9 11 9 3 0 2 -4 -1 -10z m-2200 -136
c-9 -9 -19 -13 -23 -10 -3 4 0 11 8 16 24 15 33 11 15 -6z m2283 -69 c-3 -3
-9 2 -12 12 -6 14 -5 15 5 6 7 -7 10 -15 7 -18z m-11 -37 c-3 -8 -6 -5 -6 6
-1 11 2 17 5 13 3 -3 4 -12 1 -19z m39 -25 c1 -7 -2 -15 -6 -18 -5 -3 -2 -18
6 -33 17 -33 18 -52 2 -52 -6 0 -9 3 -5 6 3 4 -1 20 -9 36 -11 22 -12 33 -4
43 8 9 8 15 0 20 -5 3 -10 16 -10 28 1 22 1 22 12 2 7 -11 13 -26 14 -32z
m697 -22 c3 -14 0 -17 -14 -14 -22 6 -26 33 -5 33 7 0 16 -8 19 -19z m-595
-50 c12 -7 28 -9 34 -5 6 4 8 3 4 -4 -8 -13 34 -28 43 -15 9 15 41 24 41 12 0
-6 4 -8 9 -4 5 3 13 0 17 -6 4 -7 3 -9 -2 -6 -6 3 -16 2 -24 -4 -12 -7 -11 -9
5 -10 11 -1 23 -1 26 -1 4 1 14 -7 23 -17 16 -17 15 -20 -16 -43 -82 -63 -143
-142 -136 -176 3 -12 10 -5 25 23 27 52 79 107 124 134 36 21 37 21 60 2 79
-61 165 -77 213 -40 32 25 72 86 82 123 5 21 12 26 38 26 46 -1 134 -40 228
-103 l83 -55 54 -119 c48 -103 65 -157 74 -238 3 -29 -26 -25 -33 5 l-6 25 -8
-22 c-7 -22 -12 -23 -113 -23 -103 0 -107 1 -163 35 -87 53 -126 45 -161 -29
-22 -47 -61 -71 -162 -98 -41 -11 -48 -10 -67 7 -18 16 -20 17 -14 2 5 -14 -5
-12 -58 12 -80 36 -147 77 -154 95 -3 8 -1 49 4 91 l8 77 -80 61 c-45 33 -82
61 -84 63 -2 1 1 28 7 60 5 33 13 95 16 138 7 76 8 79 24 59 9 -11 26 -26 39
-32z m-2366 -26 c-4 -24 -32 -36 -32 -14 0 5 4 8 9 5 5 -3 11 3 14 14 7 29 15
25 9 -5z m2858 -4 c0 -5 -7 -25 -15 -45 -19 -44 -52 -59 -116 -53 -43 3 -117
42 -105 54 3 3 33 16 68 29 62 23 168 33 168 15z m-580 -27 c0 -8 -4 -12 -10
-9 -5 3 -10 10 -10 16 0 5 5 9 10 9 6 0 10 -7 10 -16z m1883 -69 c0 -11 -6
-58 -13 -105 -11 -83 -18 -101 -66 -185 -12 -22 -26 -63 -30 -91 -6 -49 -5
-53 30 -91 32 -35 36 -47 36 -92 0 -51 -1 -53 -92 -156 l-93 -104 -12 27 c-6
15 -25 35 -43 46 l-32 18 7 77 c17 207 60 372 135 520 55 110 103 163 144 159
24 -2 31 -8 29 -23z m-4203 -46 c0 -5 -4 -9 -8 -9 -5 0 -9 7 -9 15 0 8 4 12 9
9 4 -3 8 -9 8 -15z m2313 -4 c-3 -9 -8 -14 -10 -11 -3 3 -2 9 2 15 9 16 15 13
8 -4z m-2408 -54 c-3 -11 0 -9 11 4 l17 20 -8 -20 c-13 -34 -12 -82 2 -83 7
-1 20 -3 28 -4 21 -2 20 -3 -19 -26 l-34 -20 -4 23 c-3 13 0 31 5 40 6 12 6
16 -1 11 -7 -4 -10 5 -10 22 1 16 -2 34 -5 39 -3 5 1 10 9 10 9 0 13 -6 9 -16z
m55 -35 c-1 -21 -1 -21 -15 -2 -10 13 -15 15 -15 6 0 -7 -3 -11 -6 -7 -9 9 3
24 21 24 9 0 15 -9 15 -21z m-77 -19 c3 -8 2 -20 -3 -26 -5 -9 -7 -4 -7 13 0
29 2 32 10 13z m4555 -89 c22 -35 42 -71 44 -81 2 -12 -13 -30 -44 -54 l-48
-35 0 116 c0 64 2 116 4 116 2 0 22 -28 44 -62z m-4552 17 c-4 -11 8 -13 32
-6 1 1 5 1 8 0 4 0 11 5 16 13 6 9 7 5 3 -11 -4 -13 -8 -36 -9 -52 -1 -16 -6
-32 -11 -36 -4 -4 -5 2 -2 14 5 24 -7 40 -18 23 -4 -6 -10 -8 -15 -5 -4 3 -7
-10 -6 -29 1 -19 -2 -32 -6 -30 -5 3 -8 37 -8 75 0 47 3 68 11 64 6 -4 8 -13
5 -20z m27 -70 c-3 -9 -8 -14 -10 -11 -3 3 -2 9 2 15 9 16 15 13 8 -4z m4257
-82 l-1 -98 -19 24 c-23 26 -27 89 -9 140 19 55 29 33 29 -66z m-1111 -4 c18
-11 32 -21 30 -23 -2 -2 -35 -6 -72 -10 l-68 -7 12 23 c23 44 47 48 98 17z
m1752 -62 c-10 -9 -11 -8 -5 6 3 10 9 15 12 12 3 -3 0 -11 -7 -18z m-2306 -17
c9 -14 125 -77 196 -106 35 -15 76 -35 91 -45 14 -10 37 -19 50 -20 26 0 31 2
-115 -63 -43 -19 -99 -49 -124 -66 -42 -29 -50 -31 -82 -22 -20 6 -52 15 -71
19 l-35 9 3 55 c2 52 28 230 37 257 5 14 38 2 50 -18z m696 -51 c63 -64 109
-131 109 -159 0 -6 -23 1 -50 15 -76 39 -164 58 -226 50 -30 -3 -56 -11 -59
-16 -10 -16 -31 -10 -87 24 l-54 32 41 42 c38 41 86 62 165 76 79 14 88 10
161 -64z m140 40 c12 -6 18 -27 21 -71 3 -35 9 -72 13 -83 4 -11 -14 5 -41 35
-26 30 -68 74 -92 98 l-44 43 64 -7 c35 -4 70 -10 79 -15z m80 -89 c3 -41 5
-77 3 -78 -9 -12 -36 56 -41 103 -6 52 -4 57 13 53 16 -3 20 -15 25 -78z
m-561 40 c-8 -15 -21 -20 -55 -20 -24 0 -47 5 -50 10 -4 6 11 10 37 10 24 0
50 5 58 10 21 14 22 13 10 -10z m1740 -34 c0 -2 -8 -10 -17 -17 -16 -13 -17
-12 -4 4 13 16 21 21 21 13z m-4597 -42 c-3 -8 -9 -14 -14 -14 -4 0 -5 7 -2
17 5 12 3 14 -7 8 -8 -5 -11 -4 -6 3 9 16 36 3 29 -14z m3584 -20 c38 -68 38
-87 2 -107 -17 -10 -33 -16 -34 -15 -2 2 -5 40 -7 86 -4 91 4 99 39 36z m-442
-22 c55 -24 81 -39 74 -46 -3 -4 -28 3 -55 13 -27 11 -71 26 -99 34 l-50 15
45 0 c25 1 63 -7 85 -16z m-58 -64 c18 -5 62 -31 98 -57 l66 -49 -53 -6 -53
-6 -74 70 c-79 76 -79 77 16 48z m-69 -54 c40 -36 72 -69 72 -74 0 -4 -22 -11
-49 -15 -58 -8 -80 -27 -61 -50 9 -11 9 -15 1 -15 -19 0 -51 -63 -49 -97 4
-69 -32 -54 -117 47 -36 44 -78 87 -93 97 -15 9 -29 18 -31 20 -11 7 79 92
128 120 87 51 112 46 199 -33z m782 45 c40 -8 50 -15 50 -30 0 -18 -5 -20 -47
-13 -56 8 -49 4 -57 32 -8 26 -11 25 54 11z m-170 -34 c0 -8 -3 -15 -7 -15 -5
0 -19 -3 -33 -7 -25 -6 -25 -6 -6 15 22 25 46 29 46 7z m310 -45 c12 -22 13
-60 3 -60 -11 1 -53 69 -53 86 0 20 35 1 50 -26z m-111 11 c12 -8 11 -23 -4
-100 -10 -50 -20 -91 -24 -91 -25 1 -35 25 -41 102 -4 45 -5 86 -3 91 6 10 55
9 72 -2z m-199 -26 c0 -28 -17 -34 -26 -10 -6 14 -8 13 -20 -2 -13 -17 -14
-17 -7 2 6 17 5 18 -9 7 -11 -9 -18 -10 -23 -2 -7 11 4 16 45 23 14 2 28 5 33
6 4 0 7 -10 7 -24z m783 -260 l6 -200 -14 205 c-7 113 -13 223 -13 245 l1 40
7 -45 c4 -25 10 -135 13 -245z m-509 229 c10 -26 7 -51 -9 -64 -13 -11 -15 -6
-15 34 0 45 12 61 24 30z m-607 -39 c27 -27 34 -41 29 -58 -3 -12 -6 -30 -6
-39 0 -30 -15 -20 -75 47 -56 64 -56 65 -33 74 38 16 48 13 85 -24z m-2291
-17 c4 -7 3 -8 -4 -4 -7 4 -12 1 -12 -8 0 -9 5 -16 10 -16 6 0 10 -5 10 -11 0
-5 -5 -7 -12 -3 -7 5 -8 3 -2 -7 4 -8 9 -36 9 -63 0 -26 -1 -43 -3 -37 -2 6
-8 9 -13 5 -21 -13 -32 62 -15 109 3 9 8 24 11 32 5 18 11 19 21 3z m-313 -16
c-2 -7 10 -10 32 -8 28 2 32 0 23 -11 -9 -11 -7 -12 7 -7 13 5 16 4 11 -5 -4
-6 -4 -11 1 -10 18 3 34 -2 29 -9 -8 -13 11 -35 23 -28 8 5 5 17 -10 39 l-21
32 22 -24 c16 -19 23 -22 29 -12 6 10 10 8 15 -5 4 -10 1 -21 -6 -26 -10 -5
-8 -8 5 -8 17 0 17 -1 1 -30 -15 -24 -20 -27 -33 -17 -12 10 -13 9 -7 -2 11
-17 -14 -34 -30 -20 -8 6 -17 5 -27 -5 -11 -11 -17 -12 -27 -3 -10 9 -11 9 -6
0 4 -8 2 -13 -6 -13 -8 -1 -5 -7 7 -16 19 -15 19 -15 -8 -10 -23 4 -26 2 -18
-8 17 -20 0 -28 -26 -11 -13 9 -23 11 -23 6 0 -14 -46 -7 -66 10 -11 9 -15 9
-10 2 4 -7 2 -13 -3 -13 -6 0 -11 5 -11 11 0 5 -4 7 -10 4 -5 -3 -10 -1 -10 4
0 6 -3 10 -7 10 -18 -3 -36 1 -30 7 3 3 -2 14 -11 25 -25 29 -30 61 -16 90 19
38 37 49 90 53 27 2 60 9 74 15 30 12 56 9 53 -7z m2434 -4 c-3 -8 -6 -5 -6 6
-1 11 2 17 5 13 3 -3 4 -12 1 -19z m2189 -77 c54 -55 72 -92 92 -190 15 -74
15 -77 -7 -127 -20 -46 -114 -154 -125 -143 -2 2 0 24 4 49 24 121 4 301 -44
406 -14 30 -21 52 -16 49 5 -3 11 -1 15 5 6 9 -8 14 -28 11 -5 -1 -6 3 -2 9 9
15 57 -16 111 -69z m-306 14 c0 -17 2 -17 10 -5 8 13 10 12 10 -2 0 -10 -6
-18 -12 -19 -10 0 -10 -2 0 -6 6 -2 10 -9 6 -14 -9 -15 3 -10 17 8 12 14 12
16 0 8 -10 -6 -12 -4 -6 4 12 20 72 -46 108 -119 29 -59 32 -73 32 -160 0 -87
-4 -103 -40 -194 -30 -76 -50 -111 -88 -150 l-48 -51 6 35 c13 83 17 441 6
556 -7 65 -14 128 -17 139 -4 16 -3 17 5 5 6 -8 11 -24 11 -35z m-1820 10 c13
-14 21 -25 18 -25 -2 0 -15 11 -28 25 -13 14 -21 25 -18 25 2 0 15 -11 28 -25z
m-109 -32 c24 -27 75 -65 114 -86 38 -21 59 -36 45 -34 -143 28 -290 62 -290
67 0 12 70 100 79 100 5 0 28 -21 52 -47z m1136 0 c-3 -10 -5 -2 -5 17 0 19 2
27 5 18 2 -10 2 -26 0 -35z m-22 -27 c-7 -40 -32 -92 -41 -83 -2 2 3 23 11 47
8 23 15 53 15 67 0 15 4 22 11 18 6 -5 8 -23 4 -49z m-3295 12 c0 -18 -2 -20
-9 -8 -6 8 -7 18 -5 22 9 14 14 9 14 -14z m31 -1 c-10 -9 -11 -8 -5 6 3 10 9
15 12 12 3 -3 0 -11 -7 -18z m3416 -39 c-3 -8 -6 -5 -6 6 -1 11 2 17 5 13 3
-3 4 -12 1 -19z m-3349 -26 c2 -16 -2 -22 -15 -22 -12 -1 -8 -5 12 -15 17 -7
25 -14 19 -14 -6 -1 -11 -9 -11 -18 1 -10 -1 -38 -2 -63 l-3 -45 -12 29 -13
29 -7 -28 c-7 -26 8 -50 24 -40 8 5 5 -24 -4 -47 -11 -24 -38 -11 -31 16 5 19
5 19 -5 3 -6 -9 -15 -15 -21 -12 -5 4 -9 2 -9 -4 0 -5 6 -12 13 -14 6 -3 8 -6
2 -6 -28 -1 -105 95 -105 131 0 9 14 27 31 40 16 13 49 41 72 64 46 45 60 48
65 16z m2923 -89 c13 -16 12 -17 -3 -4 -10 7 -18 15 -18 17 0 8 8 3 21 -13z
m135 -60 c-11 -11 -17 4 -9 23 7 18 8 18 11 1 2 -10 1 -21 -2 -24z m246 -78
c4 -7 1 -12 -7 -12 -8 0 -15 4 -15 8 0 4 -6 14 -12 21 -36 37 -40 50 -8 24 19
-16 38 -34 42 -41z m-262 45 c0 -5 -5 -10 -11 -10 -5 0 -7 5 -4 10 3 6 8 10
11 10 2 0 4 -4 4 -10z m-2021 -37 c12 -18 20 -33 17 -33 -11 0 -46 44 -46 59
0 8 1 12 3 10 2 -2 14 -19 26 -36z m2061 -74 c0 -11 -5 -19 -11 -19 -6 0 -9 7
-6 15 4 8 2 17 -3 20 -6 4 -10 11 -10 17 0 7 6 6 15 -2 8 -7 15 -21 15 -31z
m177 19 c11 -13 28 -38 37 -56 17 -33 18 -33 44 -17 15 9 42 33 60 53 33 37
33 37 21 7 -7 -16 -37 -55 -66 -86 -44 -46 -53 -60 -48 -80 5 -19 0 -30 -20
-47 -24 -21 -26 -21 -32 -5 -4 10 -16 25 -27 35 -12 9 -21 24 -21 35 0 10 -6
17 -14 15 -8 -2 -11 3 -8 13 4 8 2 15 -2 15 -5 0 -8 11 -6 25 1 15 -5 31 -15
38 -9 7 -19 22 -22 35 -7 26 16 30 46 7 11 -8 28 -13 37 -10 12 4 23 -2 32
-17 19 -30 29 -86 17 -93 -6 -3 -10 -1 -10 4 0 6 -5 11 -10 11 -6 0 -4 -13 5
-30 16 -31 32 -42 21 -14 -3 8 1 22 9 30 13 13 13 19 0 52 -9 20 -27 51 -41
69 -28 37 -19 45 13 11z m-207 -19 c0 -5 -4 -9 -10 -9 -5 0 -10 7 -10 16 0 8
5 12 10 9 6 -3 10 -10 10 -16z m1269 -111 c-59 -93 -113 -168 -121 -168 -4 0
6 30 23 68 21 47 45 81 82 114 29 26 53 47 54 48 2 0 -15 -28 -38 -62z m-6950
16 c-12 -13 -24 -22 -27 -20 -7 8 30 56 40 50 5 -3 -1 -17 -13 -30z m4895 17
c4 -5 -3 -7 -14 -4 -23 6 -26 13 -6 13 8 0 17 -4 20 -9z m-39 -141 c3 -5 2
-10 -4 -10 -5 0 -13 5 -16 10 -3 6 -2 10 4 10 5 0 13 -4 16 -10z m-3252 -20
c-3 -12 -8 -19 -11 -16 -5 6 5 36 12 36 2 0 2 -9 -1 -20z m3292 -9 c10 -18
-17 -23 -33 -7 -15 15 -15 16 5 16 12 0 24 -4 28 -9z m1100 -41 c11 -12 15
-28 12 -42 -5 -17 -1 -27 13 -36 11 -7 20 -19 20 -27 0 -8 22 -39 49 -69 68
-74 76 -92 52 -105 -10 -6 -22 -7 -26 -3 -5 4 -5 2 -2 -5 4 -6 4 -18 1 -27 -5
-12 -11 -9 -31 14 -17 20 -38 32 -64 36 -38 6 -54 30 -26 39 29 10 52 9 50 -2
-1 -6 4 -13 11 -16 10 -4 12 0 8 15 -3 11 1 24 9 29 8 5 9 9 3 9 -15 0 -76
100 -78 127 0 12 -11 28 -23 34 -24 13 -31 29 -12 29 5 0 7 5 4 10 -11 18 11
11 30 -10z m344 -64 c-3 -3 -11 5 -18 17 -13 21 -12 21 5 5 10 -10 16 -20 13
-22z m531 -14 c0 -5 -10 -14 -22 -20 -17 -8 7 -9 93 -5 111 6 117 5 139 -17
18 -18 21 -30 17 -62 -6 -45 -80 -204 -128 -276 -33 -48 -168 -192 -181 -192
-25 0 -129 292 -128 360 1 40 119 191 160 206 43 15 50 16 50 6z m-543 -84
c-3 -7 -5 -2 -5 12 0 14 2 19 5 13 2 -7 2 -19 0 -25z m-532 -98 c8 -13 -5 -13
-25 0 -13 8 -13 10 2 10 9 0 20 -4 23 -10z m820 -193 c18 -72 56 -154 106
-235 11 -18 10 -23 -12 -40 -36 -30 -159 -95 -166 -88 -15 15 -14 155 2 226 9
41 21 110 28 152 6 43 13 76 15 73 3 -3 15 -42 27 -88z m877 -267 c31 -64 37
-218 12 -275 l-18 -40 -6 50 c-7 61 -16 78 -41 72 -16 -4 -19 0 -19 26 0 39
-36 274 -46 302 -12 36 96 -89 118 -135z m-1642 130 c0 -5 -12 -10 -27 -9 -25
0 -26 1 -8 9 27 12 35 12 35 0z m1667 -59 c77 -72 97 -251 49 -428 -47 -171
-129 -315 -248 -435 -10 -10 -18 -25 -18 -33 0 -8 -7 -15 -15 -15 -23 0 -18
13 15 46 31 31 41 68 16 58 -13 -5 -13 1 -4 33 5 21 14 42 19 47 5 6 9 27 9
47 0 31 11 50 80 130 101 118 122 169 128 303 5 115 -4 154 -53 226 -19 29
-35 54 -35 56 0 8 34 -13 57 -35z m-715 -147 c41 -46 109 -93 178 -121 30 -12
55 -28 55 -35 0 -7 10 -13 22 -13 12 0 25 -4 30 -9 5 -5 3 -6 -4 -2 -7 4 -13
3 -13 -3 0 -5 -9 -8 -19 -6 -19 3 -23 -16 -7 -32 4 -4 6 -3 4 4 -1 6 2 11 7
11 6 0 9 -4 8 -8 -1 -4 7 -16 19 -26 12 -11 18 -13 14 -6 -4 6 -2 12 3 12 12
0 13 -6 5 -37 -4 -13 -10 -20 -15 -17 -5 3 -7 9 -5 13 3 4 -1 8 -9 8 -19 0
-19 1 11 -28 14 -13 24 -19 23 -14 -4 15 11 74 20 80 15 9 -16 -99 -43 -155
-63 -126 -310 -326 -452 -365 -31 -8 -35 18 -33 204 1 132 -2 164 -16 192 -11
19 -20 67 -23 117 l-5 84 96 94 c53 52 101 94 107 94 6 0 25 -16 42 -36z
m-232 -105 c-7 -11 -14 -18 -17 -15 -8 8 5 36 17 36 7 0 7 -6 0 -21z m-4503 5
c-3 -3 -12 -4 -19 -1 -8 3 -5 6 6 6 11 1 17 -2 13 -5z m2283 -4 c0 -5 -5 -10
-11 -10 -5 0 -7 5 -4 10 3 6 8 10 11 10 2 0 4 -4 4 -10z m-2273 -46 c-3 -3
-12 -4 -19 -1 -8 3 -5 6 6 6 11 1 17 -2 13 -5z m4993 -2 c0 -5 -7 -9 -15 -9
-8 0 -12 4 -9 9 3 4 9 8 15 8 5 0 9 -4 9 -8z m-4993 -18 c-3 -3 -12 -4 -19 -1
-8 3 -5 6 6 6 11 1 17 -2 13 -5z m5019 -35 c3 -6 2 -15 -4 -21 -6 -6 -12 -6
-17 3 -5 8 -4 10 3 5 7 -4 12 -3 12 3 0 5 -6 12 -12 14 -10 4 -10 6 -1 6 6 1
15 -4 19 -10z m-1226 -31 c0 -6 -7 -5 -15 2 -8 7 -15 17 -15 22 0 6 7 5 15 -2
8 -7 15 -17 15 -22z m60 -52 c0 -3 -4 -8 -10 -11 -5 -3 -10 -1 -10 4 0 6 5 11
10 11 6 0 10 -2 10 -4z m-3843 -12 c-3 -3 -12 -4 -19 -1 -8 3 -5 6 6 6 11 1
17 -2 13 -5z m0 -90 c-3 -3 -12 -4 -19 -1 -8 3 -5 6 6 6 11 1 17 -2 13 -5z
m3695 -16 c-7 -7 -12 -8 -12 -2 0 14 12 26 19 19 2 -3 -1 -11 -7 -17z m-5224
1 c41 -3 60 -18 25 -20 -12 -1 -9 -4 7 -8 14 -5 33 -7 43 -5 12 2 17 -4 17
-19 0 -13 -3 -17 -8 -11 -4 6 -16 10 -27 8 -11 -2 -45 -6 -75 -9 -30 -3 -71
-8 -90 -11 -48 -7 -162 -11 -177 -6 -16 5 -17 32 -2 32 6 0 8 8 4 19 -5 16 2
20 52 28 56 8 141 9 231 2z m5102 -9 c6 -11 8 -25 5 -30 -3 -5 -1 -11 5 -15 5
-3 10 -15 10 -25 0 -10 11 -27 25 -38 31 -25 32 -33 3 -25 -13 3 -38 6 -56 5
-18 0 -30 4 -27 9 4 5 2 9 -4 9 -5 0 -12 -6 -15 -12 -11 -26 3 74 15 107 15
40 24 43 39 15z m-5020 -2 c0 -4 -7 -8 -15 -8 -8 0 -15 4 -15 8 0 5 7 9 15 9
8 0 15 -4 15 -9z m37 -8 c-3 -11 -1 -18 4 -14 5 3 9 13 10 22 0 14 2 13 9 -3
7 -16 9 -17 9 -3 1 17 16 19 39 5 7 -5 12 -4 12 2 0 13 22 10 32 -4 5 -6 8 -5
8 3 0 7 4 11 8 8 5 -3 54 -6 110 -7 77 -1 102 -5 102 -15 0 -10 -20 -12 -85
-10 -47 1 -85 -2 -85 -6 0 -4 -11 -3 -25 2 -18 7 -25 6 -25 -3 0 -8 -4 -7 -10
3 -9 13 -10 13 -10 0 0 -13 -1 -13 -10 0 -8 12 -10 12 -10 -5 0 -17 -2 -17
-10 -5 -5 8 -10 10 -10 4 0 -7 -14 -11 -35 -10 -19 1 -35 -3 -35 -8 0 -5 -3
-7 -6 -3 -7 6 5 67 13 67 3 0 3 -9 0 -20z m1420 14 c-3 -3 -12 -4 -19 -1 -8 3
-5 6 6 6 11 1 17 -2 13 -5z m-1060 -26 c-3 -8 -6 -5 -6 6 -1 11 2 17 5 13 3
-3 4 -12 1 -19z m20 0 c-3 -8 -6 -5 -6 6 -1 11 2 17 5 13 3 -3 4 -12 1 -19z
m73 0 c0 -3 -9 -6 -20 -5 -11 1 -20 5 -20 9 0 3 9 6 20 5 11 -1 20 -5 20 -9z
m17 -10 c-3 -8 -6 -5 -6 6 -1 11 2 17 5 13 3 -3 4 -12 1 -19z m20 0 c-3 -8 -6
-5 -6 6 -1 11 2 17 5 13 3 -3 4 -12 1 -19z m20 -10 c-3 -8 -6 -5 -6 6 -1 11 2
17 5 13 3 -3 4 -12 1 -19z m20 0 c-3 -8 -6 -5 -6 6 -1 11 2 17 5 13 3 -3 4
-12 1 -19z m20 0 c-3 -8 -6 -5 -6 6 -1 11 2 17 5 13 3 -3 4 -12 1 -19z m870
16 c-3 -3 -12 -4 -19 -1 -8 3 -5 6 6 6 11 1 17 -2 13 -5z m-837 -14 c0 9 3 11
8 5 4 -5 20 -10 36 -10 18 0 31 -6 33 -15 4 -13 3 -13 -6 0 -10 13 -11 13 -11
0 0 -13 -1 -13 -10 0 -5 8 -10 10 -10 4 0 -6 -13 -9 -30 -6 -19 3 -30 10 -30
21 0 14 2 14 10 1 9 -13 10 -13 10 0z m847 -6 c-3 -3 -12 -4 -19 -1 -8 3 -5 6
6 6 11 1 17 -2 13 -5z m3613 -8 c0 -3 -4 -8 -10 -11 -5 -3 -10 -1 -10 4 0 6 5
11 10 11 6 0 10 -2 10 -4z m-3613 -22 c-3 -3 -12 -4 -19 -1 -8 3 -5 6 6 6 11
1 17 -2 13 -5z m3693 -8 c0 -12 -48 -55 -53 -49 -12 11 -8 23 7 23 7 0 19 7
26 15 12 15 20 19 20 11z m-3683 -12 c-3 -3 -12 -4 -19 -1 -8 3 -5 6 6 6 11 1
17 -2 13 -5z m47 -119 c8 -33 17 -71 20 -85 2 -14 7 -33 11 -42 6 -14 2 -18
-16 -18 -19 0 -21 2 -9 10 9 6 11 10 3 10 -7 0 -10 7 -7 15 4 9 0 15 -7 15
-11 0 -11 3 1 10 11 7 11 10 2 10 -7 0 -10 5 -7 10 3 6 0 10 -7 10 -9 0 -9 3
2 10 12 7 12 10 1 10 -7 0 -11 6 -7 15 3 8 0 15 -7 15 -8 0 -6 4 3 10 12 8 12
10 -5 10 -12 0 -16 3 -9 8 17 11 13 42 -5 42 -14 0 -14 2 -1 10 12 8 12 10 -5
10 -16 0 -17 2 -5 10 19 12 32 -13 54 -95z m-1344 91 c0 -11 -19 -15 -25 -6
-3 5 1 10 9 10 9 0 16 -2 16 -4z m83 -3 c-7 -2 -19 -2 -25 0 -7 3 -2 5 12 5
14 0 19 -2 13 -5z m-180 -10 c-7 -2 -21 -2 -30 0 -10 3 -4 5 12 5 17 0 24 -2
18 -5z m-298 -37 c14 -8 23 -16 18 -19 -5 -3 -20 3 -33 14 -30 22 -23 25 15 5z
m75 -47 c0 -4 -7 -6 -15 -3 -8 4 -15 10 -15 15 0 4 7 6 15 3 8 -4 15 -10 15
-15z m-87 -11 c4 1 7 -3 7 -9 0 -6 -7 -9 -15 -6 -8 4 -17 2 -20 -3 -10 -16
-72 -12 -78 5 -5 11 -1 12 17 5 20 -7 25 -5 29 11 5 18 8 19 29 8 13 -7 26
-12 31 -11z m5257 7 c-7 -8 -17 -15 -22 -15 -6 0 -5 7 2 15 7 8 17 15 22 15 6
0 5 -7 -2 -15z m-429 -21 c12 -14 11 -16 -5 -13 -11 2 -21 10 -24 17 -5 17 13
15 29 -4z m1709 -114 c0 -16 -4 -39 -9 -52 -5 -13 -12 -31 -15 -42 -4 -13 -10
-15 -19 -9 -21 17 -103 33 -169 34 l-63 0 130 49 c72 27 133 49 138 49 4 1 7
-12 7 -29z m-4747 -17 c-7 -2 -19 -2 -25 0 -7 3 -2 5 12 5 14 0 19 -2 13 -5z
m4 -19 c-3 -3 -12 -4 -19 -1 -8 3 -5 6 6 6 11 1 17 -2 13 -5z m3 -24 c0 -5 -7
-10 -16 -10 -8 0 -12 5 -9 10 3 6 10 10 16 10 5 0 9 -4 9 -10z m3 -27 c-7 -2
-19 -2 -25 0 -7 3 -2 5 12 5 14 0 19 -2 13 -5z m4 -19 c-3 -3 -12 -4 -19 -1
-8 3 -5 6 6 6 11 1 17 -2 13 -5z m0 -20 c-3 -3 -12 -4 -19 -1 -8 3 -5 6 6 6
11 1 17 -2 13 -5z m9 -36 c1 -11 -4 -18 -13 -18 -9 0 -13 6 -10 14 3 8 1 17
-6 20 -7 3 -3 5 7 3 11 -1 20 -10 22 -19z m1 -34 c-3 -3 -12 -4 -19 -1 -8 3
-5 6 6 6 11 1 17 -2 13 -5z m0 -20 c-3 -3 -12 -4 -19 -1 -8 3 -5 6 6 6 11 1
17 -2 13 -5z m0 -20 c-3 -3 -12 -4 -19 -1 -8 3 -5 6 6 6 11 1 17 -2 13 -5z
m4478 -4 c-4 -6 16 -10 53 -10 32 0 61 -3 64 -6 8 -7 -40 -93 -70 -126 -26
-28 -75 -38 -87 -18 -3 6 3 10 15 10 21 0 20 2 -8 38 -41 52 -54 79 -42 87 50
31 86 43 75 25z m-4472 -17 c-7 -2 -19 -2 -25 0 -7 3 -2 5 12 5 14 0 19 -2 13
-5z m0 -20 c-7 -2 -19 -2 -25 0 -7 3 -2 5 12 5 14 0 19 -2 13 -5z m7 -128 c0
-103 -2 -115 -17 -115 -15 0 -16 2 -3 10 11 7 11 10 2 10 -15 0 -12 31 3 42 6
5 6 8 -1 8 -8 0 -11 15 -10 40 2 23 -2 40 -8 40 -6 0 -4 5 4 10 8 5 10 10 5
10 -6 0 -12 14 -13 30 -2 24 2 30 18 30 19 0 20 -6 20 -115z m4988 -115 l0
-25 -8 25 c-4 14 -8 36 -8 50 l0 25 8 -25 c4 -14 8 -36 8 -50z m-172 10 c-3
-36 -13 -49 -22 -26 -3 9 -11 13 -18 9 -6 -3 0 6 13 20 14 15 26 27 27 27 1 0
1 -13 0 -30z m34 -8 c0 -5 -7 -17 -16 -28 -8 -10 -14 -14 -11 -9 2 6 7 18 10
28 7 17 17 23 17 9z m-4847 -19 c-7 -2 -19 -2 -25 0 -7 3 -2 5 12 5 14 0 19
-2 13 -5z m0 -20 c-7 -2 -19 -2 -25 0 -7 3 -2 5 12 5 14 0 19 -2 13 -5z m4577
-18 c0 -8 -7 -15 -15 -15 -9 0 -12 6 -9 15 4 8 10 15 15 15 5 0 9 -7 9 -15z
m228 -22 c0 -10 5 -67 12 -127 14 -126 8 -197 -22 -252 -22 -43 -86 -114 -103
-114 -20 0 -47 87 -40 128 11 67 9 101 -8 120 -16 17 -13 22 43 88 60 70 80
107 35 64 -14 -13 -25 -21 -25 -19 0 3 17 21 37 40 20 18 31 26 24 17 -19 -25
-8 -22 15 4 10 12 13 18 7 14 -18 -10 -16 1 5 29 21 29 21 29 20 8z m-515 -45
c-5 -10 -42 -9 -68 1 -14 6 -5 8 27 7 25 -1 44 -4 41 -8z m394 -84 c-3 -3 -12
-4 -19 -1 -8 3 -5 6 6 6 11 1 17 -2 13 -5z m-437 -54 c-8 -5 -31 -9 -50 -9
l-35 2 35 7 c19 4 42 8 50 9 13 1 13 0 0 -9z m-131 -14 c-2 -2 -26 -7 -54 -10
-35 -5 -46 -3 -35 4 14 9 99 15 89 6z m137 -41 c-11 -8 -27 -15 -35 -15 -10 0
-7 6 9 14 33 19 50 19 26 1z m-217 -46 c-25 -16 -32 -9 -13 12 12 13 20 16 22
9 3 -7 -2 -16 -9 -21z m126 -4 c-16 -13 -34 -24 -40 -25 -5 0 4 11 20 25 17
13 35 24 40 25 6 0 -3 -11 -20 -25z m-60 -35 c-3 -5 -14 -10 -23 -10 -15 0
-15 2 -2 10 20 13 33 13 25 0z m-40 -30 c-3 -5 -13 -6 -21 -3 -12 4 -13 8 -3
14 15 9 32 2 24 -11z m-3160 -108 c-3 -3 -11 0 -18 7 -9 10 -8 11 6 5 10 -3
15 -9 12 -12z m-12 -19 c-7 -2 -19 -2 -25 0 -7 3 -2 5 12 5 14 0 19 -2 13 -5z
m-23 -53 c-14 -4 -20 -9 -15 -9 6 -1 3 -6 -5 -11 -13 -9 -13 -11 0 -20 13 -9
13 -10 0 -10 -13 0 -13 -1 0 -10 12 -8 10 -10 -10 -11 -17 -1 -20 -3 -7 -6 9
-2 15 -9 11 -14 -3 -5 -10 -7 -15 -4 -5 3 -6 -1 -3 -9 4 -10 1 -16 -7 -16 -11
0 -11 -3 1 -10 12 -8 12 -10 -5 -10 -17 0 -17 -2 -5 -10 13 -8 12 -10 -3 -10
-10 0 -16 -4 -12 -9 7 -12 -15 -61 -27 -61 -5 0 -6 -4 -3 -10 3 -5 -2 -10 -12
-10 -15 0 -16 -2 -3 -10 12 -8 10 -10 -10 -10 -20 0 -22 -2 -10 -10 12 -8 11
-10 -7 -10 -27 0 -29 12 -5 36 9 10 16 19 15 21 -7 8 -2 23 10 35 7 7 23 38
36 68 41 96 71 140 94 139 20 -1 20 -2 -3 -9z m3698 -38 c2 -7 -2 -10 -12 -6
-9 3 -16 11 -16 16 0 13 23 5 28 -10z m-114 -87 c-4 -8 -11 -15 -16 -15 -6 0
-5 6 2 15 7 8 14 15 16 15 2 0 1 -7 -2 -15z m567 -166 c-9 -23 -10 -23 -10 -2
-1 12 2 30 6 40 6 15 8 15 11 2 1 -8 -2 -26 -7 -40z m-4298 -16 c-7 -2 -19 -2
-25 0 -7 3 -2 5 12 5 14 0 19 -2 13 -5z m-10 -20 c-7 -2 -19 -2 -25 0 -7 3 -2
5 12 5 14 0 19 -2 13 -5z"/>
<path d="M6756 3888 c3 -5 10 -6 15 -3 13 9 11 12 -6 12 -8 0 -12 -4 -9 -9z"/>
<path d="M6780 3867 c0 -9 -4 -19 -10 -22 -6 -3 -7 1 -4 9 3 9 1 16 -5 16 -13
0 -14 -19 -3 -38 6 -9 12 -6 22 13 7 14 10 28 7 32 -4 3 -7 -1 -7 -10z"/>
<path d="M3771 3724 c0 -11 3 -14 6 -6 3 7 2 16 -1 19 -3 4 -6 -2 -5 -13z"/>
<path d="M3653 3692 c-7 -4 -9 -13 -4 -21 6 -9 10 -7 14 8 3 12 4 21 4 21 -1
0 -7 -4 -14 -8z"/>
<path d="M8215 3820 c-4 -6 -4 -14 -1 -17 3 -4 6 -1 6 6 0 7 5 9 10 6 8 -5 8
-11 0 -20 -8 -10 -8 -15 2 -21 7 -4 10 -4 6 1 -4 4 -3 14 2 20 7 9 6 16 -4 24
-10 9 -16 9 -21 1z"/>
<path d="M3955 3590 c-3 -5 -1 -10 4 -10 6 0 11 5 11 10 0 6 -2 10 -4 10 -3 0
-8 -4 -11 -10z"/>
<path d="M6980 1870 c0 -5 5 -10 11 -10 5 0 7 5 4 10 -3 6 -8 10 -11 10 -2 0
-4 -4 -4 -10z"/>
<path d="M4976 5982 c-3 -5 1 -9 9 -9 8 0 15 4 15 9 0 4 -4 8 -9 8 -6 0 -12
-4 -15 -8z"/>
<path d="M5030 5895 c0 -15 18 -40 24 -34 3 3 -1 14 -9 25 -8 10 -14 15 -15 9z"/>
<path d="M5080 5782 c0 -8 -5 -10 -12 -6 -10 6 -10 5 -1 -8 7 -8 10 -18 6 -21
-3 -4 -2 -7 4 -7 16 0 23 24 12 41 -7 11 -9 11 -9 1z"/>
<path d="M5142 5613 c-10 -27 -11 -28 -17 -5 -4 12 -11 22 -15 22 -9 0 -46
-41 -42 -47 2 -3 0 -8 -4 -11 -4 -4 -4 -2 -1 4 4 7 0 17 -8 24 -24 20 -18 -7
8 -32 12 -13 21 -27 19 -31 -1 -5 2 -6 8 -2 5 3 10 -2 11 -12 0 -11 3 -13 6
-5 2 6 9 10 14 6 5 -3 9 2 9 10 0 9 -3 15 -7 14 -18 -3 -40 14 -38 30 2 28 35
32 35 5 0 -16 -2 -16 -11 -3 -7 10 -9 11 -7 2 2 -8 7 -12 12 -10 4 2 15 -10
23 -25 8 -16 17 -26 20 -23 3 3 1 12 -5 19 -7 8 -9 17 -5 21 7 6 13 76 7 76
-1 0 -7 -12 -12 -27z m8 -33 c0 -5 -5 -10 -11 -10 -5 0 -7 5 -4 10 3 6 8 10
11 10 2 0 4 -4 4 -10z"/>
<path d="M5233 5528 c-2 -16 1 -18 10 -9 7 7 8 14 1 21 -6 6 -10 2 -11 -12z"/>
<path d="M2950 5500 c-6 -11 -8 -20 -6 -20 3 0 10 9 16 20 6 11 8 20 6 20 -3
0 -10 -9 -16 -20z"/>
<path d="M5010 5478 c0 -4 4 -8 9 -8 6 0 12 4 15 8 3 5 -1 9 -9 9 -8 0 -15 -4
-15 -9z"/>
<path d="M4976 5471 c-7 -10 18 -34 27 -25 7 8 -3 34 -13 34 -5 0 -11 -4 -14
-9z"/>
<path d="M5120 5465 c0 -8 4 -15 10 -15 5 0 7 7 4 15 -4 8 -8 15 -10 15 -2 0
-4 -7 -4 -15z"/>
<path d="M5029 5453 c-13 -16 -12 -17 4 -4 16 13 21 21 13 21 -2 0 -10 -8 -17
-17z"/>
<path d="M5085 5440 c-10 -11 -13 -20 -7 -20 7 0 12 6 12 13 0 8 3 7 10 -3 7
-12 9 -10 7 8 -2 27 0 26 -22 2z"/>
<path d="M2920 5410 c0 -11 2 -20 4 -20 2 0 6 9 9 20 3 11 1 20 -4 20 -5 0 -9
-9 -9 -20z"/>
<path d="M8035 4029 c-3 -3 2 -12 10 -19 8 -7 15 -11 16 -9 6 30 5 36 -8 36
-7 0 -16 -4 -18 -8z"/>
<path d="M8130 3986 c0 -2 7 -9 15 -16 9 -7 15 -8 15 -2 0 5 -7 12 -15 16 -8
3 -15 4 -15 2z"/>
<path d="M969 3113 c-13 -16 -12 -17 4 -4 9 7 17 15 17 17 0 8 -8 3 -21 -13z"/>
<path d="M8440 2341 c0 -7 -5 -9 -10 -6 -6 4 -10 3 -9 -2 3 -19 -2 -34 -9 -29
-5 3 -9 -1 -9 -9 0 -8 2 -15 3 -15 8 0 45 62 40 67 -3 4 -6 1 -6 -6z"/>
</g>
</svg>
